<svg width="500" height="500" viewBox="0 0 500 500" fill="none" xmlns="http://www.w3.org/2000/svg">
<path d="M250 500C388.071 500 500 388.071 500 250C500 111.929 388.071 0 250 0C111.929 0 0 111.929 0 250C0 388.071 111.929 500 250 500Z" fill="#627EEA"/>
<path d="M257.781 62.5V201.094L374.922 253.437L257.781 62.5Z" fill="white" fill-opacity="0.602"/>
<path d="M257.781 62.5L140.625 253.437L257.781 201.094V62.5Z" fill="white"/>
<path d="M257.781 343.25V437.422L375 275.25L257.781 343.25Z" fill="white" fill-opacity="0.602"/>
<path d="M257.781 437.422V343.234L140.625 275.25L257.781 437.422Z" fill="white"/>
<path d="M257.781 321.453L374.922 253.437L257.781 201.125V321.453Z" fill="white" fill-opacity="0.2"/>
<path d="M140.625 253.437L257.781 321.453V201.125L140.625 253.437Z" fill="white" fill-opacity="0.602"/>
</svg>
